SplineFontDB: 3.2
FontName: HershoMono-Regular
FullName: Hersho Mono Regular
FamilyName: Hersho Mono
Weight: Regular
Copyright: Copyright (c) 2023, Sim Domingo
UComments: "2023-9-4: Created with FontForge (http://fontforge.org)"
Version: 001.000
ItalicAngle: 0
UnderlinePosition: -100
UnderlineWidth: 50
Ascent: 800
Descent: 200
InvalidEm: 0
LayerCount: 2
Layer: 0 0 "Back" 1
Layer: 1 0 "Fore" 0
XUID: [1021 39 -546803219 6476244]
StyleMap: 0x0000
FSType: 0
OS2Version: 0
OS2_WeightWidthSlopeOnly: 0
OS2_UseTypoMetrics: 1
CreationTime: 1693767096
ModificationTime: 315532800
PfmFamily: 17
TTFWeight: 400
TTFWidth: 5
LineGap: 90
VLineGap: 0
OS2TypoAscent: 0
OS2TypoAOffset: 1
OS2TypoDescent: 0
OS2TypoDOffset: 1
OS2TypoLinegap: 90
OS2WinAscent: 0
OS2WinAOffset: 1
OS2WinDescent: 0
OS2WinDOffset: 1
HheadAscent: 0
HheadAOffset: 1
HheadDescent: 0
HheadDOffset: 1
OS2Vendor: 'PfEd'
MarkAttachClasses: 1
DEI: 91125
LangName: 1033
Encoding: ISO8859-1
UnicodeInterp: none
NameList: AGL For New Fonts
DisplaySize: -48
AntiAlias: 1
FitToEm: 0
WinInfo: 0 27 9
BeginPrivate: 0
EndPrivate
TeXData: 1 0 0 522190 261095 174063 489685 1048576 174063 783286 444596 497025 792723 393216 433062 380633 303038 157286 324010 404750 52429 2506097 1059062 262144
BeginChars: 256 256

StartChar: o
Encoding: 111 111 0
Width: 600
Flags: W
HStem: 0 130<242.957 357.005> 362 118<243.311 357.435>
VStem: 101 100<173.798 318.855> 399 100<173.552 319.093>
LayerCount: 2
Fore
SplineSet
101 245 m 4
 101 386 186 480 300 480 c 4
 414 480 499 385 499 245 c 4
 499 105 414 0 300 0 c 4
 187 0 101 104 101 245 c 4
399 245 m 4
 399 315 354 362 300 362 c 4
 245 362 201 313 201 245 c 4
 201 176 247 130 300 130 c 4
 352 130 399 174 399 245 c 4
EndSplineSet
Validated: 1
EndChar

StartChar: n
Encoding: 110 110 1
Width: 600
Flags: W
HStem: 0 21G<101 201 399 499> 0 21G<101 201 399 499> 391 92<223.328 373.656>
VStem: 101 100<0 344 458 483> 399 100<0 343>
LayerCount: 2
Fore
SplineSet
102 483 m 1xb8
 201 483 l 1
 201 458 l 1
 229 471 286 483 323 483 c 3
 359 483 498 452 498 350 c 2
 499 0 l 1
 399 0 l 5
 399 343 l 6
 399 343 376 391 299 391 c 3
 221 391 201 344 201 344 c 2
 201 0 l 1
 101 0 l 1
 101 162 101 323 102 483 c 1xb8
EndSplineSet
Validated: 1
EndChar

StartChar: h
Encoding: 104 104 2
Width: 600
Flags: W
HStem: 0 21G<101 201.061 399 499> 0 21G<101 201.061 399 499> 379 102<216.737 384.818>
VStem: 102 100<0 361.872 458 797> 399 100<0 359.921>
LayerCount: 2
Fore
SplineSet
102 797 m 5xb8
 202 797 l 5
 202 458 l 5
 231 471 278 481 315 481 c 7
 352 481 496 455 497 345 c 6
 499 0 l 5
 399 0 l 5
 400 329 l 6
 400 356 364 379 315 379 c 7
 265 379 202 370 202 329 c 6
 201 0 l 5
 101 0 l 5
 102 797 l 5xb8
EndSplineSet
Validated: 1
EndChar

StartChar: i
Encoding: 105 105 4
Width: 600
Flags: W
HStem: 1 100<347 499> 357 100<101 249> 524 136<236.222 330.682>
VStem: 217 132<542.722 641.704> 249 100<101 357>
LayerCount: 2
Fore
SplineSet
293 659 m 4xf0
 324 653 349 627 349 594 c 4
 349 556 320 524 282 524 c 4
 278 524 273 524 269 525 c 4
 241 530 217 552 217 586 c 4
 217 588 217 590 217 592 c 4
 220 628 245 660 281 660 c 4
 285 660 289 660 293 659 c 4xf0
101 357 m 1
 101 457 l 1
 299 457 l 2
 327 457 349 435 349 407 c 0
 348 181 347 115 347 101 c 1
 499 101 l 1
 499 1 l 1
 296 1 l 2
 268 1 246 23 246 51 c 0
 249 357 l 1xe8
 101 357 l 1
EndSplineSet
Validated: 1
EndChar

StartChar: j
Encoding: 106 106 5
Width: 600
Flags: W
HStem: -200 104<239.223 371.765> 358 100<320 396> 524 136<386.315 480.498>
VStem: 101 106<-63.09 27> 320 175<358 448.299> 368 131<542.042 641.935> 397 99<-64.4906 357>
LayerCount: 2
Fore
SplineSet
444 659 m 0xf4
 476 653 499 625 499 592 c 0
 499 554 469 524 432 524 c 0
 428 524 423 524 419 525 c 0
 388 530 368 555 368 588 c 0
 368 590 368 592 368 594 c 0
 371 632 398 660 432 660 c 0
 436 660 440 660 444 659 c 0xf4
300 -200 m 3
 162 -200 104 -115 101 27 c 5
 207 27 l 5
 207 -31 218 -96 304 -96 c 3
 387 -96 397 -74 397 149 c 0xf2
 397 205 396 273 396 357 c 1
 320 358 l 1
 320 417 320 458 320 458 c 1
 438 457 465 457 465 457 c 0
 446 457 l 2
 473 457 495 434 495 407 c 0xf8
 495 317 496 241 496 175 c 0xf2
 496 -151 477 -200 300 -200 c 3
EndSplineSet
Validated: 1
EndChar

StartChar: s
Encoding: 115 115 6
Width: 600
Flags: W
HStem: 4 76<233.816 358.886> 194 86<246.4 372.556> 391 88<244.379 356.552>
VStem: 118 114<293.203 378.152> 385 113<106.386 181.837 317 361.668>
LayerCount: 2
Fore
SplineSet
293 280 m 3
 346 280 498 246 498 147 c 3
 498 66 419 4 293 4 c 3
 204 4 101 65 101 143 c 0
 213 143 l 3
 213 102 261 80 293 80 c 3
 338 80 385 110 385 147 c 3
 385 181 354 194 293 194 c 3
 211 194 118 273 118 332 c 3
 118 411 206 479 293 479 c 3
 386 479 499 419 499 317 c 16
 385 317 l 1
 385 371 324 391 293 391 c 3
 254 391 232 363 232 333 c 3
 232 306 256 280 293 280 c 3
EndSplineSet
Validated: 1
EndChar

StartChar: v
Encoding: 118 118 7
Width: 600
Flags: W
HStem: 1 21G<242.859 353.36> 1 21G<242.859 353.36> 463 20G<101 205.824 394.929 499>
LayerCount: 2
Fore
SplineSet
249 1 m 1xa0
 101 483 l 1
 200 483 l 1
 299 143 l 1
 401 479 l 1
 499 479 l 1
 347 1 l 1
 249 1 l 1xa0
EndSplineSet
Validated: 1
EndChar

StartChar: w
Encoding: 119 119 8
Width: 600
Flags: W
HStem: 1 21G<120.261 250 362 485.487> 1 21G<120.261 250 362 485.487> 457 20G<35 147.507 255.802 344.315 455.434 565>
LayerCount: 2
Fore
SplineSet
35 477 m 5xa0
 145 477 l 5
 188 134 l 5
 260 477 l 5
 340 477 l 5
 414 134 l 5
 458 477 l 5
 565 477 l 5
 482 1 l 5
 366 1 l 5
 358 45 309 260 301 302 c 5
 294 260 254 45 246 1 c 5
 124 1 l 5
 35 477 l 5xa0
EndSplineSet
Validated: 1
EndChar

StartChar: d
Encoding: 100 100 9
Width: 600
Flags: W
HStem: 0 130<242.085 356.983> 362 118<241.731 357.151> 781 20G<401 499>
VStem: 101 100<173.84 319.261> 401 98<2 33 178.007 313.993 450 799>
LayerCount: 2
Fore
SplineSet
397 246 m 0
 397 312 355 362 299 362 c 4
 242 362 201 312 201 246 c 0
 201 180 242 130 299 130 c 4
 355 130 397 180 397 246 c 0
101 245 m 0
 101 383 183 480 299 480 c 4
 337 480 371 470 401 450 c 1
 401 799 l 1
 499 801 l 1
 499 2 l 1
 401 0 l 1
 401 33 l 1
 371 11 336 0 299 0 c 4
 185 0 101 105 101 245 c 0
EndSplineSet
Validated: 1
EndChar

StartChar: p
Encoding: 112 112 10
Width: 600
Flags: W
HStem: -1 118<242.303 357.478> 349 130<242.472 357.124>
VStem: 101 98<-200 29 165.007 300.993 446 477> 399 100<159.739 305.16>
LayerCount: 2
Fore
SplineSet
203 233 m 0
 203 167 244 117 300 117 c 4
 357 117 399 167 399 233 c 4
 399 299 357 349 300 349 c 4
 244 349 203 299 203 233 c 0
499 234 m 4
 499 96 416 -1 300 -1 c 7
 262 -1 229 9 199 29 c 1
 199 -200 l 1
 101 -202 l 1
 101 477 l 1
 199 479 l 1
 199 446 l 1
 229 468 263 479 300 479 c 7
 414 479 499 374 499 234 c 4
EndSplineSet
Validated: 1
EndChar

StartChar: b
Encoding: 98 98 11
Width: 600
Flags: W
HStem: 0 130<242.472 357.124> 362 118<242.303 357.478> 781 20G<101 199>
VStem: 101 98<2 33 178.007 313.993 450 799> 399 100<173.84 319.261>
LayerCount: 2
Fore
SplineSet
203 246 m 4
 203 180 244 130 300 130 c 4
 357 130 399 180 399 246 c 4
 399 312 357 362 300 362 c 4
 244 362 203 312 203 246 c 4
499 245 m 4
 499 105 414 0 300 0 c 4
 263 0 229 11 199 33 c 5
 199 0 l 5
 101 2 l 5
 101 801 l 5
 199 799 l 5
 199 450 l 5
 229 470 262 480 300 480 c 4
 416 480 499 383 499 245 c 4
EndSplineSet
Validated: 1
EndChar

StartChar: q
Encoding: 113 113 12
Width: 600
Flags: W
HStem: 1 118<242.522 357.697> 351 130<242.876 357.528>
VStem: 101 100<161.739 307.16> 401 98<-198 31 167.007 302.993 448 479>
LayerCount: 2
Fore
SplineSet
397 235 m 0
 397 301 356 351 300 351 c 0
 243 351 201 301 201 235 c 0
 201 169 243 119 300 119 c 0
 356 119 397 169 397 235 c 0
101 236 m 0
 101 376 186 481 300 481 c 3
 337 481 371 470 401 448 c 1
 401 481 l 1
 499 479 l 1
 499 -200 l 1
 401 -198 l 1
 401 31 l 1
 371 11 338 1 300 1 c 3
 184 1 101 98 101 236 c 0
EndSplineSet
Validated: 1
EndChar

StartChar: g
Encoding: 103 103 13
Width: 600
Flags: W
HStem: -202 104<239.805 379.308> -20 20G<101 207> -20 20G<101 207> 0 130<244.07 358.25> 362 118<238.439 351.006>
VStem: 101 100<-59.1328 0 178.533 321.949> 391 107<-79.826 28 164.609 320.353 454 478.927>
LayerCount: 2
Fore
SplineSet
391 254 m 7x9e
 391 308 347 362 300 362 c 3
 244 362 201 320 201 254 c 7
 201 188 244 130 300 130 c 3
 378 130 391 205 391 254 c 7x9e
101 254 m 7
 101 392 184 480 300 480 c 3
 335 480 368 471 397 454 c 1
 397 479 l 1
 499 479 l 1
 499 479 498 379 498 254 c 7
 498 232 498 211 498 191 c 0
 498 -177 493 -202 292 -202 c 7
 144 -202 101 -48 101 0 c 0
 207 0 l 3xce
 207 -64 247 -98 299 -98 c 3
 350 -98 395 -85 395 -39 c 2
 396 28 l 1
 367 10 334 0 300 0 c 0
 186 0 101 114 101 254 c 7
EndSplineSet
Validated: 1
EndChar

StartChar: e
Encoding: 101 101 14
Width: 600
Flags: W
HStem: 0 124<253.126 372.261> 217 65<210 390> 367 110<253.66 354.845>
VStem: 101 109<172.053 217>
LayerCount: 2
Fore
SplineSet
-291 574 m 1049
390 282 m 1
 378 322 356 367 300 367 c 0
 281 367 230 344 210 282 c 1
 390 282 l 1
302 124 m 31
 348 124 398 162 398 162 c 26
 463 97 l 17
 463 97 410 0 301 0 c 0
 211 0 101 108 101 246 c 3
 101 399 216 477 301 477 c 0
 420 477 499 375 499 240 c 2
 499 217 l 1
 210 217 l 1
 210 192 252 124 302 124 c 31
EndSplineSet
Validated: 1
EndChar

StartChar: c
Encoding: 99 99 15
Width: 600
Flags: W
HStem: 0 130<253.259 377.455> 362 118<253.689 379.919>
VStem: 101 107<174.876 314.878>
LayerCount: 2
Fore
SplineSet
400 319 m 1025
499 372 m 1025
493 104 m 1
 455 40 392 0 315 0 c 0
 193 0 101 104 101 245 c 0
 101 386 192 480 315 480 c 0
 397 480 462 440 499 372 c 9
 499 372 424 333 400 319 c 1
 381 346 349 362 315 362 c 0
 255 362 208 313 208 245 c 0
 208 176 257 130 315 130 c 0
 344 130 371 141 390 162 c 1
 435 138 444 136 493 104 c 1
EndSplineSet
Validated: 1
EndChar

StartChar: a
Encoding: 97 97 16
Width: 600
Flags: W
HStem: 0 78<229.146 367.491> 217 71<226.806 373.833> 374 99<233.429 362.051>
VStem: 101 100<105.327 191.851> 397 102<0 17 106.258 147 147.125 193.865 272 341.138>
LayerCount: 2
Fore
SplineSet
498 339 m 0
 499 320 499 147 499 147 c 1
 499 0 l 1
 397 0 l 1
 397 17 l 1
 368 6 335 0 300 0 c 0
 186 0 101 63 101 147 c 0
 101 230 184 288 299 288 c 0
 336 288 368 282 397 272 c 1
 396 319 l 1
 364 361 330 374 300 374 c 0
 245 374 200 329 198 329 c 2
 158 363 l 1
 135 381 l 1
 135 382 l 2
 135 393 216 472 305 473 c 2
 306 473 l 2
 388 473 495 407 498 339 c 0
300 217 m 0
 236 217 201 185 201 149 c 0
 201 106 250 78 300 78 c 0
 354 78 395 111 395 152 c 0
 395 192 356 217 300 217 c 0
EndSplineSet
Validated: 1
EndChar

StartChar: x
Encoding: 120 120 17
Width: 600
Flags: W
HStem: 0 23G<101 211.647 388.857 499> 462 20G<101 211.647 388.857 499>
LayerCount: 2
Fore
SplineSet
248 241 m 1
 101 482 l 1
 200 482 l 1
 299 312 l 1
 401 480 l 1
 499 480 l 1
 347 241 l 1
 499 2 l 1
 401 2 l 1
 299 170 l 1
 200 0 l 1
 101 0 l 1
 248 241 l 1
EndSplineSet
Validated: 1
EndChar

StartChar: y
Encoding: 121 121 18
Width: 600
Flags: W
HStem: 463 20G<101 205.824 394.929 499>
LayerCount: 2
Fore
SplineSet
249 6 m 5
 101 483 l 1
 200 483 l 1
 299 143 l 1
 401 479 l 1
 499 479 l 1
 289 -200 l 1
 191 -200 l 1
 249 6 l 5
EndSplineSet
Validated: 1
EndChar

StartChar: u
Encoding: 117 117 19
Width: 600
Flags: W
HStem: 0 92<226.344 376.672> 463 20G<101 201 399 499>
VStem: 102 99<140 483> 399 99<0 25 139 483>
LayerCount: 2
Fore
SplineSet
498 0 m 5
 399 0 l 5
 399 25 l 5
 371 12 314 0 277 0 c 7
 241 0 102 31 102 133 c 6
 101 483 l 5
 201 483 l 5
 201 140 l 6
 201 140 224 92 301 92 c 7
 379 92 399 139 399 139 c 6
 399 483 l 5
 499 483 l 5
 499 321 499 160 498 0 c 5
EndSplineSet
Validated: 1
EndChar

StartChar: l
Encoding: 108 108 20
Width: 600
Flags: W
HStem: 794 20G<219.915 322>
VStem: 256 100<88 714>
LayerCount: 2
Fore
SplineSet
499 135 m 1
 499 35 l 1
 306 -12 l 1
 278 -12 256 10 256 38 c 0
 256 69 256 99 256 129 c 2
 258 714 l 1
 101 667 l 1
 101 767 l 1
 308 814 l 1
 336 814 358 792 358 764 c 0
 358 733 358 703 358 673 c 2
 356 88 l 1
 499 135 l 1
EndSplineSet
Validated: 1
EndChar

StartChar: r
Encoding: 114 114 21
Width: 600
Flags: W
HStem: 0 21G<101 201> 0 21G<101 201> 392 91<215.556 309>
VStem: 101 101<0 343.972 344 375.887 458 483>
LayerCount: 2
Fore
SplineSet
101 483 m 1xb0
 202 483 l 1
 202 458 l 1
 230 471 272 483 309 483 c 0
 309 483 440 479 499 377 c 1
 431 338 l 1
 431 336 l 1
 431 344 362 392 308 392 c 0
 260 392 202 382 202 344 c 2
 202 344 201 307 201 0 c 1
 101 0 l 1
 101 162 101 323 101 483 c 1xb0
EndSplineSet
Validated: 1
EndChar

StartChar: m
Encoding: 109 109 22
Width: 600
Flags: HMW
LayerCount: 2
Fore
SplineSet
101 476 m 1
 168 476 l 1
 168 448 l 1
 168 448 178 477 221 477 c 0
 281 477 303 421 303 421 c 1
 303 421 338 476 395 476 c 0
 463 476 499 398 499 357 c 2
 499 0 l 1
 426 0 l 1
 426 351 l 1
 426 351 422 389 379 389 c 0
 336 389 335 351 335 351 c 1
 335 0 l 1
 262 0 l 1
 262 351 l 2
 262 354 261 389 220 389 c 0
 177 389 175 351 175 351 c 1
 175 0 l 1
 101 0 l 1
 101 476 l 1
EndSplineSet
Validated: 1
EndChar

StartChar: t
Encoding: 116 116 23
Width: 600
Flags: W
HStem: 1 92<347.142 498.947> 353 117<101 246 345 493> 779 20G<246 345>
VStem: 246 99<95.7762 353 470 799>
LayerCount: 2
Fore
SplineSet
387 93 m 15
 426 93 499 91 499 91 c 5
 499 0 l 5
 460 0 468 1 343 1 c 4
 256 1 245 65 245 146 c 0
 245 172 246 201 246 229 c 6
 246 353 l 5
 101 353 l 5
 101 470 l 5
 246 470 l 5
 246 799 l 5
 345 799 l 5
 345 470 l 5
 493 470 l 5
 493 353 l 5
 345 353 l 5
 345 353 345 307 345 229 c 31
 345 227 345 225 345 223 c 7
 345 192 344 168 344 150 c 0
 344 106 350 93 387 93 c 15
EndSplineSet
Validated: 1
EndChar

StartChar: f
Encoding: 102 102 24
Width: 600
Flags: W
HStem: 375 101<101 168 267 330> 699 100<287.013 378.309>
VStem: 168 99<-7 375 476 678.562> 399 100<560 679.034>
LayerCount: 2
Fore
SplineSet
499 560 m 1
 399 559 l 1
 399 564 399 569 399 574 c 0
 399 635 396 699 330 699 c 0
 268 699 267 630 267 569 c 0
 267 567 267 565 267 563 c 2
 267 476 l 1
 330 476 l 1
 330 375 l 5
 267 375 l 5
 267 -7 l 1
 168 -7 l 1
 168 375 l 5
 101 375 l 5
 101 476 l 1
 168 476 l 1
 168 563 l 2
 168 678 213 799 329 799 c 0
 454 799 499 682 499 560 c 1
EndSplineSet
Validated: 1
EndChar

StartChar: k
Encoding: 107 107 25
Width: 600
Flags: W
HStem: 0 21G<101 200 389.558 499> 0 21G<101 200 389.558 499> 780 20G<101.975 201>
VStem: 101 100<0 157 275 800>
LayerCount: 2
Fore
SplineSet
102 800 m 1xb0
 201 800 l 1
 201 275 l 1
 382 448 l 1
 499 448 l 1
 358 290 l 1
 499 0 l 1
 400 0 l 1
 282 226 l 5
 199 157 l 1
 200 0 l 1
 101 0 l 1
 102 800 l 1xb0
EndSplineSet
Validated: 1
EndChar

StartChar: z
Encoding: 122 122 26
Width: 600
Flags: W
HStem: 0 91<241 499> 384 97<101 378>
LayerCount: 2
Fore
SplineSet
101 481 m 1
 499 481 l 1
 499 384 l 1
 241 91 l 1
 499 91 l 1
 499 0 l 1
 101 0 l 1
 101 91 l 1
 378 384 l 1
 101 384 l 1
 101 481 l 1
EndSplineSet
Validated: 1
EndChar

StartChar: H
Encoding: 72 72 27
Width: 600
Flags: W
HStem: 0 21G<101 204 396 499> 0 21G<101 204 396 499> 380 78<204 396> 779 20G<101 204 396 499>
VStem: 101 103<0 380 458 799> 396 103<0 380 458 799>
LayerCount: 2
Fore
SplineSet
101 799 m 1xbc
 204 799 l 1
 204 458 l 1
 396 458 l 5
 396 799 l 5
 499 799 l 5
 499 0 l 5
 396 0 l 5
 396 380 l 5
 204 380 l 1
 204 0 l 1
 101 0 l 1
 101 799 l 1xbc
EndSplineSet
Validated: 1
EndChar

StartChar: O
Encoding: 79 79 28
Width: 600
Flags: W
HStem: 0 116<238.224 359.509> 693 106<248.587 355.135>
VStem: 101 102<199.018 593.143> 399 100<199.038 613.186>
LayerCount: 2
Fore
SplineSet
101 412 m 24
 101 637 184 799 299 799 c 3
 427 799 499 659 499 412 c 24
 499 150 426 0 299 0 c 0
 172 0 101 147 101 412 c 24
399 412 m 27
 399 626 379 693 299 693 c 3
 228 693 203 612 203 417 c 0
 203 415 203 414 203 412 c 0
 203 407 203 403 203 398 c 0
 203 162 216 116 299 116 c 4
 383 116 399 174 399 412 c 27
EndSplineSet
Validated: 1
EndChar

StartChar: A
Encoding: 65 65 29
Width: 600
Flags: W
HStem: 0 21G<101 206.351 383.393 499> 0 21G<101 206.351 383.393 499> 191 81<244 331> 779 20G<224.821 335.205>
LayerCount: 2
Fore
SplineSet
285 682 m 5x30
 244 272 l 5
 331 272 l 5
 285 682 l 5x30
228 799 m 5
 331 799 l 5
 499 0 l 5
 388 0 l 5
 344 191 l 5
 235 191 l 5
 203 0 l 5
 101 0 l 5xb0
 228 799 l 5
EndSplineSet
Validated: 1
EndChar

StartChar: E
Encoding: 69 69 30
Width: 600
Flags: W
HStem: 0 101<204 499> 368 90<204 371> 704 95<204 499>
VStem: 101 103<101 368 458 704>
LayerCount: 2
Fore
SplineSet
499 800 m 1
 499 705 l 1
 204 704 l 1
 204 458 l 1
 372 458 l 1
 371 368 l 1
 204 368 l 1
 204 101 l 1
 499 102 l 1
 499 0 l 1
 101 0 l 1
 101 799 l 1
 499 800 l 1
EndSplineSet
Validated: 1
EndChar

StartChar: S
Encoding: 83 83 31
Width: 600
Flags: W
HStem: 0 116<270.844 365.973> 704 96<234.56 333.271>
VStem: 101 109<565.638 679.278> 392 107<137.562 257.192>
LayerCount: 2
Fore
SplineSet
490 587 m 5
 382 587 l 5
 382 587 360 704 287 704 c 4
 254 704 210 680 210 625 c 7
 210 483 499 440 499 228 c 4
 499 145 455 0 311 0 c 4
 127 0 109 238 109 238 c 5
 227 238 l 5
 227 238 235 116 320 116 c 0
 321 116 321 116 322 116 c 4
 384 117 392 180 392 212 c 0
 392 224 391 231 391 231 c 5
 391 344 101 410 101 601 c 4
 101 708 193 800 297 800 c 4
 454 800 490 587 490 587 c 5
EndSplineSet
Validated: 1
EndChar

StartChar: I
Encoding: 73 73 32
Width: 600
Flags: W
HStem: 1 93<101 248 356 499> 709 92<101 248 356 499>
VStem: 248 108<94 709>
LayerCount: 2
Fore
SplineSet
101 801 m 5
 499 801 l 5
 499 709 l 5
 356 709 l 5
 356 94 l 5
 499 94 l 5
 499 1 l 5
 101 1 l 5
 101 94 l 5
 248 94 l 5
 248 709 l 5
 101 709 l 5
 101 801 l 5
EndSplineSet
Validated: 1
EndChar

StartChar: N
Encoding: 78 78 33
Width: 600
Flags: W
HStem: 0 21G<101 205 389.117 499> 0 21G<101 205 389.117 499> 779 20G<101 212.061 396 499>
VStem: 101 104<0 555> 396 103<258 799>
LayerCount: 2
Fore
SplineSet
101 799 m 5xb8
 205 799 l 5
 396 258 l 5
 396 799 l 5
 499 799 l 5
 499 0 l 5
 396 0 l 5
 205 555 l 5
 205 0 l 5
 101 0 l 5
 101 799 l 5xb8
EndSplineSet
Validated: 1
EndChar

StartChar: L
Encoding: 76 76 34
Width: 600
Flags: W
HStem: 0 101<204 499> 780 20G<101 204>
VStem: 101 103<101 799>
LayerCount: 2
Fore
SplineSet
204 800 m 1
 204 101 l 1
 499 102 l 1
 499 0 l 1
 101 0 l 1
 101 799 l 1
 204 800 l 1
EndSplineSet
Validated: 1
EndChar

StartChar: Z
Encoding: 90 90 35
Width: 600
Flags: W
HStem: 0 104<213 499> 698 102<101 387>
LayerCount: 2
Fore
SplineSet
101 0 m 5
 101 104 l 5
 387 698 l 5
 101 698 l 5
 101 800 l 5
 499 800 l 5
 499 698 l 5
 213 104 l 5
 499 104 l 5
 499 0 l 5
 101 0 l 5
EndSplineSet
Validated: 1
EndChar

StartChar: V
Encoding: 86 86 36
Width: 600
Flags: W
HStem: 1 21G<245.295 350.805> 1 21G<245.295 350.805> 780 20G<101 203.014 397.895 499>
VStem: 101 99<762.209 800> 401 98<763.204 800>
LayerCount: 2
Fore
SplineSet
249 1 m 5xb8
 101 800 l 5
 200 800 l 5
 299 143 l 5
 401 800 l 5
 499 800 l 5
 347 1 l 5
 249 1 l 5xb8
EndSplineSet
Validated: 1
EndChar

StartChar: P
Encoding: 80 80 37
Width: 600
Flags: W
HStem: 0 21G<101 204> 0 21G<101 204> 368 84<207 349.376> 699 99<207 353.156>
VStem: 101 103<0 368 452 698> 405 94<512.163 648.16>
LayerCount: 2
Fore
SplineSet
207 698 m 0x3c
 207 452 l 19
 229 452 241 452 292 452 c 7
 350 452 405 515 405 582 c 7
 405 645 353 699 292 699 c 7
 247 699 249 698 207 698 c 0x3c
338 368 m 15
 223 368 204 368 204 368 c 1
 204 0 l 1
 101 0 l 1xbc
 101 798 l 1
 101 798 183 798 338 798 c 23
 419 798 499 691 499 582 c 7
 499 475 419 368 338 368 c 15
EndSplineSet
Validated: 1
EndChar

StartChar: T
Encoding: 84 84 38
Width: 600
Flags: W
HStem: 1 21G<248 356> 1 21G<248 356> 709 92<101 248 356 499>
VStem: 248 108<1 709>
LayerCount: 2
Fore
SplineSet
101 801 m 1xb0
 499 801 l 1
 499 709 l 1
 356 709 l 1
 356 473 356 237 356 1 c 1
 248 1 l 1
 248 709 l 1
 101 709 l 1
 101 801 l 1xb0
EndSplineSet
Validated: 1
EndChar

StartChar: M
Encoding: 77 77 39
Width: 600
Flags: W
HStem: 0 21G<101 204 396 499> 0 21G<101 204 396 499> 780 20G<101 209.831 389.239 499>
VStem: 101 103<0 561> 396 103<0 561>
LayerCount: 2
Fore
SplineSet
101 799 m 1xb8
 203 800 l 1
 300 516 l 1
 396 800 l 1
 499 799 l 1
 499 0 l 1
 396 0 l 1
 396 561 l 5
 301 322 l 1
 204 561 l 5
 204 0 l 1
 101 0 l 1
 101 799 l 1xb8
EndSplineSet
Validated: 1
EndChar

StartChar: F
Encoding: 70 70 40
Width: 600
Flags: W
HStem: 0 21G<101 204> 0 21G<101 204> 368 90<204 371> 704 95<204 499>
VStem: 101 103<0 368 458 704>
LayerCount: 2
Fore
SplineSet
499 800 m 5xb8
 499 705 l 5
 204 704 l 5
 204 458 l 5
 372 458 l 5
 371 368 l 5
 204 368 l 5
 204 0 l 5
 101 0 l 5
 101 799 l 5
 499 800 l 5xb8
EndSplineSet
Validated: 1
EndChar

StartChar: X
Encoding: 88 88 41
Width: 600
Flags: W
HStem: 0 21G<101 210.742 389.419 499> 0 21G<101 210.742 389.419 499> 780 20G<101 207.24 393.832 499>
LayerCount: 2
Fore
SplineSet
255 423 m 1xa0
 101 800 l 1
 200 800 l 1
 301 521 l 1
 401 800 l 1
 499 800 l 1
 342 424 l 5
 499 0 l 1
 396 0 l 1
 294 310 l 1
 205 0 l 1
 101 0 l 1
 255 423 l 1xa0
EndSplineSet
Validated: 1
EndChar

StartChar: Y
Encoding: 89 89 42
Width: 600
Flags: W
HStem: 0 21G<252 345> 0 21G<252 345> 780 20G<101 206.037 394.78 499>
VStem: 252 93<0 401>
LayerCount: 2
Fore
SplineSet
252 401 m 5xb0
 101 800 l 5
 200 800 l 5
 299 472 l 5
 401 800 l 5
 499 800 l 5
 345 401 l 5
 345 0 l 5
 252 0 l 5
 252 401 l 5xb0
EndSplineSet
Validated: 1
EndChar

StartChar: Q
Encoding: 81 81 43
Width: 600
Flags: W
HStem: 0 116<237.533 327.388> 693 106<252.42 357.985>
VStem: 101 102<189.269 582.274> 399 100<202.234 612.669>
LayerCount: 2
Fore
SplineSet
399 397 m 0
 399 632 377 693 307 693 c 0
 229 693 203 617 203 415 c 0
 203 415 203 414 203 410 c 0
 203 406 203 403 203 403 c 0
 203 158 218 116 298 116 c 0
 310 116 320 117 328 119 c 1
 235 279 l 1
 341 280 l 1
 387 199 l 1
 396 241 399 303 399 397 c 0
101 382 m 0
 101 636 184 799 310 799 c 0
 427 799 499 660 499 408 c 0
 499 278 480 171 443 100 c 1
 499 0 l 1
 397 0 l 1
 382 26 l 1
 358 9 330 0 299 0 c 0
 172 0 101 147 101 382 c 0
EndSplineSet
Validated: 1
EndChar

StartChar: U
Encoding: 85 85 44
Width: 600
Flags: W
HStem: 0 116<242.314 357.831> 780 20G<101 198 402 499>
VStem: 101 93<181.553 800> 408 91<187.514 801>
LayerCount: 2
Fore
SplineSet
101 800 m 22
 198 800 l 5
 196 680 194 519 194 411 c 4
 194 181 218 116 301 116 c 4
 383 116 408 185 408 411 c 4
 408 560 402 649 402 801 c 5
 499 801 l 5
 499 620 499 337 499 337 c 6
 499 88 447 0 299 0 c 4
 153 0 101 88 101 337 c 6
 101 800 l 22
EndSplineSet
Validated: 1
EndChar

StartChar: R
Encoding: 82 82 45
Width: 600
Flags: W
HStem: 0 21G<101 204 389.098 499> 0 21G<101 204 389.098 499> 368 84<207 269> 699 99<207 353.134>
VStem: 101 103<0 368 452 698> 405 92<510.195 648.16>
LayerCount: 2
Fore
SplineSet
207 698 m 5x3c
 207 452 l 5
 229 452 241 452 292 452 c 4
 350 452 405 515 405 582 c 4
 405 645 353 699 292 699 c 4
 247 699 249 698 207 698 c 5x3c
269 368 m 5
 204 368 l 5
 204 0 l 5
 101 0 l 5
 101 798 l 5
 101 798 183 798 338 798 c 4
 419 798 497 691 497 582 c 4
 497 488 437 397 367 375 c 5
 499 0 l 5
 396 0 l 5xbc
 269 368 l 5
EndSplineSet
Validated: 1
EndChar

StartChar: D
Encoding: 68 68 46
Width: 600
Flags: W
HStem: 0 88<207 300.623> 695 103<207 305.016>
VStem: 101 106<88 694> 405 94<259.655 538.077>
LayerCount: 2
Fore
SplineSet
207 694 m 4
 207 88 l 23
 229 88 205 88 256 88 c 7
 314 88 405 230 405 399 c 7
 405 576 317 695 256 695 c 7
 211 695 249 694 207 694 c 4
302 0 m 14
 101 0 l 5
 101 798 l 5
 101 798 147 798 302 798 c 23
 383 798 499 620 499 399 c 7
 499 198 383 0 302 0 c 14
EndSplineSet
Validated: 1
EndChar

StartChar: K
Encoding: 75 75 47
Width: 600
Flags: W
HStem: 0 21G<101 205 375.691 497> 0 21G<101 205 375.691 497> 780 20G<101 205 375.939 499>
VStem: 101 104<0 243 553 800>
LayerCount: 2
Fore
SplineSet
205 243 m 5xb0
 205 0 l 1
 101 0 l 1
 101 800 l 1
 205 800 l 1
 205 553 l 1
 391 800 l 1
 499 800 l 1
 205 400 l 1
 497 0 l 1
 391 0 l 1
 205 243 l 5xb0
EndSplineSet
Validated: 1
EndChar

StartChar: B
Encoding: 66 66 48
Width: 600
Flags: W
HStem: 0 84<205 345.964> 331 121<207 350.283> 699 99<207 354.561>
VStem: 101 104<84 330 452 698> 403 94<144.163 280.996 506.866 650.368>
LayerCount: 2
Fore
SplineSet
414 398 m 5
 462 358 497 287 497 214 c 4
 497 107 444 0 336 0 c 6
 101 0 l 5
 101 798 l 5
 101 798 183 798 338 798 c 4
 438 798 499 687 499 581 c 4
 499 509 463 437 414 398 c 5
207 698 m 5
 207 452 l 5
 229 452 241 452 292 452 c 4
 350 452 405 514 405 581 c 4
 405 644 353 699 292 699 c 4
 247 699 249 698 207 698 c 5
205 330 m 5
 205 84 l 5
 227 84 239 84 290 84 c 4
 348 84 403 147 403 214 c 4
 403 277 351 331 290 331 c 4
 245 331 247 330 205 330 c 5
EndSplineSet
Validated: 1
EndChar

StartChar: C
Encoding: 67 67 49
Width: 600
Flags: W
HStem: 0 118<249.517 383.565> 693 106<250.597 376.942>
VStem: 101 102<197.077 592.283> 399 100<132.751 228 588 668.625>
LayerCount: 2
Fore
SplineSet
497 588 m 4
 395 562 l 4
 395 675 382 693 302 693 c 4
 229 693 203 615 203 398 c 7
 203 194 230 118 302 118 c 7
 392 118 399 128 399 255 c 4
 499 228 l 4
 499 60 446 0 300 0 c 4
 173 0 101 148 101 412 c 4
 101 635 186 799 302 799 c 4
 441 799 497 738 497 588 c 4
EndSplineSet
Validated: 1
EndChar

StartChar: G
Encoding: 71 71 50
Width: 600
Flags: W
HStem: 0 118<251.493 356.875> 308 78<303 403> 693 106<247.863 375.228>
VStem: 101 102<196.006 609.774> 393 102<563 673.45> 403 96<179.165 308>
LayerCount: 2
Fore
SplineSet
495 563 m 5xf8
 393 562 l 5xf8
 393 675 380 693 300 693 c 4
 227 693 203 628 203 411 c 0
 203 207 228 118 300 118 c 4
 383 118 401 208 403 308 c 5
 303 308 l 5
 303 386 l 5
 499 386 l 7xf4
 499 211 469 0 298 0 c 4
 171 0 101 148 101 412 c 0
 101 635 167 798 300 799 c 4
 301 799 301 799 302 799 c 0
 439 799 495 712 495 563 c 5xf8
EndSplineSet
Validated: 1
EndChar

StartChar: J
Encoding: 74 74 51
Width: 600
Flags: W
HStem: 0 116<239.65 357.831> 781 20G<402 499>
VStem: 101 97<167.162 252> 408 91<187.514 801>
LayerCount: 2
Fore
SplineSet
101 252 m 9
 198 252 l 1
 210 149 242 116 301 116 c 4
 383 116 408 185 408 411 c 4
 408 560 402 649 402 801 c 5
 499 801 l 5
 499 620 499 337 499 337 c 6
 499 88 447 0 299 0 c 4
 171 0 113 68 101 252 c 9
EndSplineSet
Validated: 1
EndChar

StartChar: W
Encoding: 87 87 52
Width: 600
Flags: W
HStem: 1 21G<135.124 235.956 354.425 464> 1 21G<135.124 235.956 354.425 464> 780 20G<101 211.292 395.124 499>
VStem: 101 110<640.2 800> 396 103<640.2 800>
LayerCount: 2
Fore
SplineSet
136 1 m 1xb8
 101 800 l 1
 211 800 l 1
 219 252 l 1
 297 402 l 1
 372 252 l 1
 396 800 l 1
 499 800 l 1
 464 1 l 1
 360 0 l 1
 297 226 l 1
 230 1 l 1
 136 1 l 1xb8
EndSplineSet
Validated: 1
EndChar

StartChar: parenleft
Encoding: 40 40 53
Width: 600
Flags: W
HStem: -42 88<349.365 449> 736 103<340.559 449>
VStem: 151 94<204.147 597.101>
LayerCount: 2
Fore
SplineSet
378 -42 m 6
 297 -42 151 14 151 399 c 4
 151 783 297 839 378 839 c 6
 449 839 l 5
 449 736 l 5
 447 736 443 736 424 736 c 4
 363 736 245 729 245 399 c 4
 245 71 366 46 424 46 c 6
 449 46 l 5
 449 -42 l 5
 378 -42 l 6
EndSplineSet
Validated: 1
EndChar

StartChar: parenright
Encoding: 41 41 54
Width: 600
Flags: W
HStem: -42 88<151 250.635> 736 103<151 259.441>
VStem: 355 94<204.147 597.101>
LayerCount: 2
Fore
SplineSet
222 -42 m 6
 151 -42 l 5
 151 46 l 5
 176 46 l 6
 234 46 355 71 355 399 c 0
 355 729 237 736 176 736 c 4
 157 736 153 736 151 736 c 5
 151 839 l 5
 222 839 l 6
 303 839 449 783 449 399 c 0
 449 14 303 -42 222 -42 c 6
EndSplineSet
Validated: 1
EndChar

StartChar: bracketleft
Encoding: 91 91 55
Width: 600
Flags: W
HStem: -95 99<259.73 449> 803 103<266.229 449>
VStem: 151 87<152.129 649.736>
LayerCount: 2
Fore
SplineSet
378 -95 m 2
 333 -95 309 -98 215 -98 c 3
 161 -98 151 26 151 399 c 0
 151 412 151 425 151 438 c 0
 151 851 152 903 215 903 c 7
 222 903 372 906 378 906 c 6
 449 906 l 5
 449 803 l 5
 447 803 443 803 424 803 c 4
 405 803 321 798 293 798 c 7
 243 798 238 700 238 399 c 3
 238 77 241 2 293 2 c 3
 373 2 391 4 424 4 c 2
 449 4 l 1
 449 -95 l 1
 378 -95 l 2
EndSplineSet
Validated: 1
EndChar

StartChar: bracketright
Encoding: 93 93 56
Width: 600
Flags: W
HStem: -95 99<151 340.27> 803 103<151 333.771>
VStem: 362 87<152.129 649.736>
LayerCount: 2
Fore
SplineSet
222 -95 m 2
 151 -95 l 1
 151 4 l 1
 176 4 l 2
 209 4 227 2 307 2 c 3
 359 2 362 77 362 399 c 3
 362 700 357 798 307 798 c 7
 279 798 195 803 176 803 c 4
 157 803 153 803 151 803 c 5
 151 906 l 5
 222 906 l 6
 228 906 378 903 385 903 c 7
 448 903 449 851 449 438 c 0
 449 425 449 412 449 399 c 0
 449 26 439 -98 385 -98 c 3
 291 -98 267 -95 222 -95 c 2
EndSplineSet
Validated: 1
EndChar

StartChar: backslash
Encoding: 92 92 57
Width: 600
Flags: W
HStem: 1 21G<372.05 499> 1 21G<372.05 499> 781 20G<101 223.075>
LayerCount: 2
Fore
SplineSet
101 801 m 1xa0
 216 801 l 1
 499 1 l 1
 379 1 l 5
 101 801 l 1xa0
EndSplineSet
Validated: 1
EndChar

StartChar: bar
Encoding: 124 124 58
Width: 600
Flags: W
VStem: 255.5 89<-103 390 489 903>
LayerCount: 2
Fore
SplineSet
344.5 903 m 9
 344.5 489 l 1
 255.5 489 l 1
 255.5 903 l 1
 344.5 903 l 9
344.5 390 m 5
 344.5 -103 l 1
 255.5 -103 l 1
 255.5 390 l 1
 344.5 390 l 5
EndSplineSet
Validated: 1
EndChar

StartChar: slash
Encoding: 47 47 59
Width: 600
Flags: W
HStem: 1 21G<101 227.95> 1 21G<101 227.95> 781 20G<376.925 499>
LayerCount: 2
Fore
SplineSet
499 801 m 1xa0
 221 1 l 5
 101 1 l 1
 384 801 l 1
 499 801 l 1xa0
EndSplineSet
Validated: 1
EndChar

StartChar: exclam
Encoding: 33 33 60
Width: 600
Flags: W
HStem: -1 190<244.28 358.185> 780 20G<244 359>
VStem: 204 192<38.0107 148.711> 244 115<271 800>
LayerCount: 2
Fore
SplineSet
204 93 m 3xe0
 204 142 252 189 301 189 c 3
 350 189 396 144 396 95 c 7
 396 46 352 -1 303 -1 c 3
 254 -1 204 44 204 93 c 3xe0
244 800 m 1xd0
 359 800 l 1
 359 271 l 1
 244 271 l 1
 244 800 l 1xd0
EndSplineSet
Validated: 1
EndChar

StartChar: one
Encoding: 49 49 61
Width: 600
Flags: W
HStem: 1 93<101 248 356 499> 781 20G<247 356>
VStem: 248 108<94 678>
LayerCount: 2
Fore
SplineSet
101 718 m 1
 247 800 l 1
 356 801 l 1
 356 94 l 1
 499 94 l 1
 499 1 l 1
 101 1 l 1
 101 94 l 1
 248 94 l 1
 247 678 l 5
 101 595 l 5
 101 718 l 1
EndSplineSet
Validated: 1
EndChar

StartChar: two
Encoding: 50 50 62
Width: 600
Flags: W
HStem: 0 104<242 491> 699 102<239.734 361.509>
VStem: 387 112<473.904 671.653>
LayerCount: 2
Fore
SplineSet
101 0 m 1
 101 104 l 1
 259 269 387 444 387 572 c 27
 387 689 345 699 301 699 c 7
 241 699 218 653 101 555 c 5
 101 680 l 1
 190 755 222 801 299 801 c 3
 404 801 499 714 499 580 c 27
 499 453 397 299 242 104 c 1
 491 104 l 1
 491 0 l 1
 101 0 l 1
EndSplineSet
Validated: 1
EndChar

StartChar: three
Encoding: 51 51 63
Width: 600
Flags: W
HStem: 0 86<258.187 360.343> 699 101<236.166 362.758>
VStem: 403 94<131.155 289.871 505.765 657.693>
LayerCount: 2
Fore
SplineSet
404 401 m 5
 459 355 497 279 497 215 c 4
 497 99 413 0 314 0 c 4
 238 0 150 72 102 174 c 5
 202 174 l 5
 230 122 275 86 311 86 c 4
 360 86 403 141 403 204 c 4
 403 286 356 321 307 405 c 5
 356 473 405 514 405 583 c 4
 405 654 362 699 292 699 c 4
 261 699 222 675 199 641 c 5
 199 641 132 641 101 641 c 5
 102 642 180 800 292 800 c 4
 405 800 499 693 499 565 c 4
 499 514 459 445 404 401 c 5
EndSplineSet
Validated: 1
EndChar

StartChar: four
Encoding: 52 52 64
Width: 600
Flags: W
HStem: 0 21G<295.081 406> 0 21G<295.081 406> 246 98<207 296 404 499> 781 20G<280.772 404>
VStem: 296 108<1 246 344 589>
LayerCount: 2
Fore
SplineSet
101 252 m 1x78
 101 344 l 1
 289 801 l 1
 404 801 l 1
 404 344 l 1
 499 344 l 5
 499 246 l 5
 404 246 l 1
 404 226 404 209 404 193 c 0
 404 125 405 84 406 1 c 1
 295 0 l 1
 296 246 l 1
 101 246 l 1
 101 252 l 1x78
296 344 m 1
 300 589 l 1
 207 344 l 1
 296 344 l 1
EndSplineSet
Validated: 1
EndChar

StartChar: five
Encoding: 53 53 65
Width: 600
Flags: W
HStem: 0 124<212.642 333.36> 388 127<238 333.08> 698 102<238 445>
VStem: 132 106<515 698> 381 118<177.263 336.451>
LayerCount: 2
Fore
SplineSet
499 263 m 7
 499 132 402 0 277 0 c 7
 181 0 101 103 101 103 c 5
 157 197 l 5
 192 168 215 124 279 124 c 7
 320 124 381 164 381 266 c 7
 381 342 319 388 284 388 c 6
 132 388 l 5
 132 800 l 5
 445 800 l 5
 445 774 445 757 445 744 c 4
 445 719 445 713 445 699 c 5
 391 698 280 698 238 698 c 5
 238 515 l 5
 295 515 l 6
 369 515 499 394 499 263 c 7
EndSplineSet
Validated: 1
EndChar

StartChar: seven
Encoding: 55 55 66
Width: 600
Flags: W
HStem: 0 21G<101 211.375> 0 21G<101 211.375> 698 102<101 365>
LayerCount: 2
Fore
SplineSet
101 0 m 1xa0
 365 699 l 1
 101 698 l 1
 101 800 l 1
 499 800 l 1
 204 0 l 1
 101 0 l 1xa0
EndSplineSet
Validated: 1
EndChar

StartChar: eight
Encoding: 56 56 67
Width: 600
Flags: W
HStem: 0 130<242.957 357.005> 362 175<248.521 338.25> 685 113<248.36 337.985>
VStem: 101 100<173.798 318.938> 134 96<555.174 665.976> 356 96<554.821 665.563> 399 100<173.552 318.815>
LayerCount: 2
Fore
SplineSet
399 245 m 4xf2
 399 315 354 362 300 362 c 4
 245 362 201 313 201 245 c 4
 201 176 247 130 300 130 c 4
 352 130 399 174 399 245 c 4xf2
356 610 m 4xec
 356 655 327 685 293 685 c 4
 258 685 230 653 230 610 c 4
 230 566 259 537 293 537 c 4
 327 537 356 564 356 610 c 4xec
134 610 m 4
 134 723 202 798 293 798 c 4
 384 798 452 722 452 610 c 4xec
 452 546 429 491 393 456 c 5
 457 419 499 343 499 245 c 4
 499 105 414 0 300 0 c 4
 187 0 101 104 101 245 c 4xf2
 101 339 139 413 198 451 c 5
 159 486 134 542 134 610 c 4
EndSplineSet
Validated: 1
EndChar

StartChar: zero
Encoding: 48 48 68
Width: 600
Flags: W
HStem: 0 116<237.426 359.509> 693 106<248.587 355.826>
VStem: 101 102<318.213 593.143> 399 100<200.347 499.545>
LayerCount: 2
Fore
SplineSet
101 412 m 0
 101 637 184 799 299 799 c 0
 427 799 499 659 499 412 c 0
 499 150 426 0 299 0 c 0
 172 0 101 147 101 412 c 0
377 638 m 1
 362 678 337 693 299 693 c 0
 228 693 203 612 203 417 c 0
 203 415 203 414 203 412 c 0
 203 407 203 403 203 398 c 0
 203 365 203 335 204 309 c 1
 377 638 l 1
397 506 m 1
 222 161 l 1
 236 126 260 116 299 116 c 0
 383 116 399 174 399 412 c 0
 399 447 398 478 397 506 c 1
EndSplineSet
Validated: 1
EndChar

StartChar: nine
Encoding: 57 57 69
Width: 600
Flags: W
HStem: 0 21G<240 321> 0 21G<240 321> 341 97<241.361 336.434> 670 130<242.995 357.043>
VStem: 101 100<480.174 626.448> 399 100<481.335 624.084>
LayerCount: 2
Fore
SplineSet
201 555 m 0x3c
 201 485 246 438 300 438 c 0
 355 438 399 487 399 555 c 0
 399 624 353 670 300 670 c 0
 248 670 201 626 201 555 c 0x3c
240 0 m 1xbc
 240 0 194 34 154 65 c 1
 295 222 362 375 362 375 c 1
 331 361 313 344 277 341 c 0
 274 341 271 341 268 341 c 0
 187 341 101 420 101 555 c 0
 101 695 186 800 300 800 c 0
 413 800 499 696 499 555 c 2
 499 554 l 1
 499 545 499 536 499 527 c 0
 499 272 402 201 240 0 c 1xbc
EndSplineSet
Validated: 1
EndChar

StartChar: six
Encoding: 54 54 70
Width: 600
Flags: W
HStem: 0 130<242.957 357.005> 362 97<263.566 358.639> 780 20G<279 360>
VStem: 101 100<175.916 318.665> 399 100<173.552 319.826>
LayerCount: 2
Fore
SplineSet
399 245 m 0
 399 315 354 362 300 362 c 0
 245 362 201 313 201 245 c 0
 201 176 247 130 300 130 c 0
 352 130 399 174 399 245 c 0
360 800 m 1
 360 800 406 766 446 735 c 1
 305 578 238 425 238 425 c 1
 269 439 287 456 323 459 c 0
 326 459 329 459 332 459 c 0
 413 459 499 380 499 245 c 0
 499 105 414 0 300 0 c 0
 187 0 101 104 101 245 c 2
 101 246 l 1
 101 255 101 264 101 273 c 0
 101 528 198 599 360 800 c 1
EndSplineSet
Validated: 1
EndChar

StartChar: numbersign
Encoding: 35 35 71
Width: 600
Flags: W
HStem: 1 21G<170 243.295 333 405.866> 1 21G<170 243.295 333 405.866> 278 72<275.625 346 420 499> 279 85<101 183 265 331.111> 509 69<101 194 279 357 430 499> 781 20G<207.013 293 370.009 440>
VStem: 183 77<248.111 279 361 433.5> 194 80<475.444 509 579 660.789> 333 72<1 150.154> 371 69<659.727 801>
LayerCount: 2
Fore
SplineSet
417 278 m 1x2d40
 405 1 l 1
 333 1 l 1
 346 278 l 1xac80
 260 279 l 1
 242 1 l 1
 170 1 l 1
 183 279 l 1
 101 279 l 1
 101 364 l 1x9e80
 187 361 l 1
 194 509 l 1
 101 509 l 1
 101 578 l 1
 197 578 l 1
 208 801 l 1
 293 801 l 1
 279 579 l 1
 360 579 l 1
 371 801 l 1
 440 801 l 1
 430 580 l 1
 499 580 l 1
 499 508 l 1
 427 508 l 1
 420 353 l 1
 499 350 l 1
 499 278 l 1
 417 278 l 1x2d40
350 355 m 1
 357 508 l 1
 274 509 l 1x0d
 265 358 l 1
 350 355 l 1
EndSplineSet
Validated: 1
EndChar

StartChar: dollar
Encoding: 36 36 72
Width: 600
Flags: W
HStem: 0 21G<260 339> 0 21G<260 339> 654 83<227.902 260> 780 20G<260 339>
VStem: 101 109<536.11 638.704> 260 79<0 65.9031 184 328 509 637 732.282 800> 392 107<178.586 278.059>
LayerCount: 2
Fore
SplineSet
490 559 m 5xbe
 382 559 l 5
 382 559 371 608 339 637 c 5
 339 455 l 5
 416 406 499 350 499 254 c 4
 499 188 461 77 339 62 c 5
 339 0 l 5
 260 0 l 5
 260 66 l 5
 124 99 109 262 109 262 c 5
 227 262 l 5
 227 262 231 214 260 184 c 5
 260 380 l 5
 183 428 101 485 101 571 c 4
 101 651 172 721 260 737 c 5
 260 800 l 5
 339 800 l 5
 339 735 l 5
 461 707 490 559 490 559 c 5xbe
260 654 m 5
 234 646 210 626 210 591 c 4
 210 559 230 533 260 509 c 5
 260 654 l 5
339 161 m 5
 386 171 392 216 392 240 c 4
 392 250 391 256 391 256 c 6
 391 282 370 305 339 328 c 5
 339 161 l 5
EndSplineSet
Validated: 1
EndChar

StartChar: percent
Encoding: 37 37 73
Width: 600
Flags: W
HStem: 0 78<336.727 423.326> 217 71<335.533 421.162> 510 78<180.727 266.625> 727 71<180.475 265.162>
VStem: 104 60<603.937 711.387> 260 60<93.9368 179.297> 282 60<614.438 711.027> 438 60<93.5999 201.027>
LayerCount: 2
Fore
SplineSet
438 146 m 0xfd
 438 188 411 217 379 217 c 0
 345 217 320 187 320 146 c 0
 320 105 348 78 379 78 c 0
 410 78 438 103 438 146 c 0xfd
282 656 m 0xfb
 282 698 255 727 223 727 c 0
 189 727 164 697 164 656 c 0
 164 615 192 588 223 588 c 0
 254 588 282 613 282 656 c 0xfb
104 656 m 0
 104 740 155 798 223 798 c 0
 291 798 342 740 342 656 c 0xfb
 342 641 340 627 337 614 c 1
 410 802 l 1
 499 802 l 1
 284 234 l 1
 305 268 339 288 379 288 c 0
 447 288 498 230 498 146 c 0
 498 62 447 0 379 0 c 0
 312 0 260 62 260 146 c 0
 260 158 261 169 263 180 c 1
 195 1 l 1
 101 1 l 1
 320 569 l 1xfd
 299 533 264 510 223 510 c 0
 156 510 104 572 104 656 c 0
EndSplineSet
Validated: 1
EndChar

StartChar: question
Encoding: 63 63 74
Width: 600
Flags: W
HStem: -1 190<244.28 358.185> 702 98<245.049 375.78>
VStem: 204 192<38.0107 148.711> 246 107<259.043 435.264> 398 101<559.335 679.343>
LayerCount: 2
Fore
SplineSet
204 93 m 7xe8
 204 142 252 189 301 189 c 7
 350 189 396 144 396 95 c 7
 396 46 352 -1 303 -1 c 7
 254 -1 204 44 204 93 c 7xe8
205 631 m 6
 101 634 l 6
 101 634 176 800 302 800 c 7
 410 800 499 735 499 607 c 7
 499 524 353 464 353 379 c 28
 353 318 354 259 354 259 c 5
 243 259 l 5
 243 259 246 318 246 379 c 28xd8
 246 462 398 544 398 607 c 7
 398 679 372 702 302 702 c 7
 234 702 205 631 205 631 c 6
EndSplineSet
Validated: 1
EndChar

StartChar: braceleft
Encoding: 123 123 75
Width: 600
Flags: W
HStem: -42 88<369.957 449> 736 103<363.455 449>
VStem: 151 109<370.925 432.751> 245 94<91.8967 326.822 476.764 702.585>
LayerCount: 2
Fore
SplineSet
377 -42 m 6xd0
 301 -42 253 -27 245 301 c 5xd0
 245 321 151 377 151 399 c 7xe0
 151 432 245 479 246 508 c 5
 257 808 303 839 377 839 c 6
 449 839 l 5
 449 736 l 5
 447 736 443 736 424 736 c 4
 416 736 409 736 403 736 c 0
 363 736 345 722 339 508 c 5xd0
 338 483 260 433 260 399 c 7xe0
 260 374 338 323 339 301 c 5
 346 50 369 46 419 46 c 0
 421 46 422 46 424 46 c 6
 449 46 l 5
 449 -42 l 5
 377 -42 l 6xd0
EndSplineSet
Validated: 1
EndChar

StartChar: braceright
Encoding: 125 125 76
Width: 600
Flags: W
HStem: -42 88<151 230.043> 736 103<151 236.545>
VStem: 261 94<91.8967 326.822 476.764 702.585> 340 109<370.925 432.751>
LayerCount: 2
Fore
SplineSet
223 -42 m 6xe0
 151 -42 l 5
 151 46 l 5
 176 46 l 6
 178 46 179 46 181 46 c 0
 231 46 254 50 261 301 c 5xe0
 262 323 340 374 340 399 c 7xd0
 340 433 262 483 261 508 c 5xe0
 255 722 237 736 197 736 c 0
 191 736 184 736 176 736 c 4
 157 736 153 736 151 736 c 5
 151 839 l 5
 223 839 l 6
 297 839 343 808 354 508 c 5
 355 479 449 432 449 399 c 7xd0
 449 377 355 321 355 301 c 5
 347 -27 299 -42 223 -42 c 6xe0
EndSplineSet
Validated: 1
EndChar

StartChar: less
Encoding: 60 60 77
Width: 600
Flags: W
LayerCount: 2
Fore
SplineSet
499 480 m 29
 499 369 l 29
 249 242 l 25
 499 103 l 29
 499 -5 l 29
 101 242 l 25
 499 480 l 29
EndSplineSet
Validated: 1
EndChar

StartChar: greater
Encoding: 62 62 78
Width: 600
Flags: W
HStem: 460 20G<101 134.445>
LayerCount: 2
Fore
SplineSet
101 480 m 29
 499 242 l 25
 101 -5 l 29
 101 103 l 29
 351 242 l 25
 101 369 l 29
 101 480 l 29
EndSplineSet
Validated: 1
EndChar

StartChar: period
Encoding: 46 46 79
Width: 600
Flags: W
HStem: -1 190<244.28 358.185>
VStem: 204 192<38.0107 148.711>
LayerCount: 2
Fore
SplineSet
204 93 m 3
 204 142 252 189 301 189 c 3
 350 189 396 144 396 95 c 3
 396 46 352 -1 303 -1 c 3
 254 -1 204 44 204 93 c 3
EndSplineSet
Validated: 1
EndChar

StartChar: comma
Encoding: 44 44 80
Width: 600
Flags: W
HStem: -118 307<255.547 291.5>
VStem: 216.5 192<40.7515 148.711>
LayerCount: 2
Fore
SplineSet
216.5 93 m 4
 216.5 142 264.5 189 313.5 189 c 4
 362.5 189 408.5 144 408.5 95 c 4
 408.5 56 379.5 18 343.5 4 c 5
 291.5 -118 l 5
 191.5 -116 l 5
 236.5 40 l 5
 224.5 56 216.5 74 216.5 93 c 4
EndSplineSet
Validated: 1
EndChar

StartChar: quotesingle
Encoding: 39 39 81
Width: 600
Flags: W
HStem: 501 298
VStem: 252 94<501 600.667>
LayerCount: 2
Fore
SplineSet
233 799 m 5
 367 800 l 5
 346 501 l 5
 252 501 l 5
 233 799 l 5
EndSplineSet
Validated: 1
EndChar

StartChar: quotedbl
Encoding: 34 34 82
Width: 600
Flags: W
HStem: 501 298
VStem: 112 94<501 596.136> 392 94<501 605.3>
LayerCount: 2
Fore
SplineSet
372 799 m 5
 506 800 l 5
 486 501 l 5
 392 501 l 5
 372 799 l 5
94 799 m 5
 228 800 l 5
 206 501 l 5
 112 501 l 5
 94 799 l 5
EndSplineSet
Validated: 1
EndChar

StartChar: colon
Encoding: 58 58 83
Width: 600
Flags: W
HStem: 18 190<244.28 358.185> 267 190<244.28 358.185>
VStem: 204 192<57.0107 167.711 306.011 416.711>
LayerCount: 2
Fore
SplineSet
204 361 m 3
 204 410 252 457 301 457 c 3
 350 457 396 412 396 363 c 3
 396 314 352 267 303 267 c 3
 254 267 204 312 204 361 c 3
204 112 m 3
 204 161 252 208 301 208 c 3
 350 208 396 163 396 114 c 3
 396 65 352 18 303 18 c 3
 254 18 204 63 204 112 c 3
EndSplineSet
Validated: 1
EndChar

StartChar: semicolon
Encoding: 59 59 84
Width: 600
Flags: W
HStem: 267 190<256.78 370.685>
VStem: 216.5 192<58.7515 166.711 306.011 416.711>
LayerCount: 2
Fore
SplineSet
216.5 111 m 0
 216.5 160 264.5 207 313.5 207 c 0
 362.5 207 408.5 162 408.5 113 c 0
 408.5 74 379.5 36 343.5 22 c 1
 291.5 -100 l 1
 191.5 -98 l 1
 236.5 58 l 1
 224.5 74 216.5 92 216.5 111 c 0
216.5 361 m 3
 216.5 410 264.5 457 313.5 457 c 3
 362.5 457 408.5 412 408.5 363 c 3
 408.5 314 364.5 267 315.5 267 c 3
 266.5 267 216.5 312 216.5 361 c 3
EndSplineSet
Validated: 1
EndChar

StartChar: plus
Encoding: 43 43 85
Width: 600
Flags: W
HStem: 286 106<101 248 354 499>
VStem: 248 106<86 286 392 566>
LayerCount: 2
Fore
SplineSet
248 566 m 1
 354 566 l 1
 354 392 l 1
 499 392 l 1
 499 286 l 1
 354 286 l 1
 354 86 l 1
 248 86 l 1
 248 286 l 1
 101 286 l 1
 101 392 l 1
 248 392 l 1
 248 566 l 1
EndSplineSet
Validated: 1
EndChar

StartChar: equal
Encoding: 61 61 86
Width: 600
Flags: W
HStem: 174 113<101 499> 396 113<101 499>
LayerCount: 2
Fore
SplineSet
101 287 m 1
 499 287 l 1
 499 174 l 1
 101 174 l 1
 101 287 l 1
101 509 m 1
 499 509 l 1
 499 396 l 1
 101 396 l 1
 101 509 l 1
EndSplineSet
Validated: 1
EndChar

StartChar: hyphen
Encoding: 45 45 87
Width: 600
Flags: W
HStem: 286 106<101 499>
LayerCount: 2
Fore
SplineSet
499 392 m 1
 499 286 l 1
 101 286 l 1
 101 392 l 1
 499 392 l 1
EndSplineSet
Validated: 1
EndChar

StartChar: underscore
Encoding: 95 95 88
Width: 600
Flags: W
HStem: -106 106<53 547>
LayerCount: 2
Fore
SplineSet
547 0 m 1
 547 -106 l 1
 53 -106 l 1
 53 0 l 1
 547 0 l 1
EndSplineSet
Validated: 1
EndChar

StartChar: asterisk
Encoding: 42 42 89
Width: 600
Flags: W
VStem: 270 55<86 289 396 566>
LayerCount: 2
Fore
SplineSet
270 566 m 1
 325 566 l 1
 325 392 l 1
 460 504 l 1
 499 450 l 1
 361 343 l 1
 492 261 l 1
 449 204 l 1
 325 292 l 1
 325 86 l 1
 270 86 l 1
 270 289 l 1
 146 196 l 1
 104 251 l 1
 238 342 l 1
 101 437 l 1
 139 493 l 1
 270 396 l 1
 270 566 l 1
EndSplineSet
Validated: 1
EndChar

StartChar: asciicircum
Encoding: 94 94 90
Width: 600
Flags: W
HStem: 470 331
LayerCount: 2
Fore
SplineSet
101 470 m 29
 296 801 l 29
 499 470 l 29
 391 470 l 29
 297 639 l 29
 213 470 l 29
 101 470 l 29
EndSplineSet
Validated: 1
EndChar

StartChar: ampersand
Encoding: 38 38 91
Width: 600
Flags: W
HStem: 0 101<210.651 272.996> 700 101<222.576 301.632>
VStem: 101 96<556.068 672.443> 101 88<121.851 326.768> 324 96<558.384 678.877> 399 92<0 78.2766>
LayerCount: 2
Fore
SplineSet
324 613 m 0xe8
 324 657 298 700 264 700 c 0
 229 700 197 655 197 611 c 0
 197 568 227 545 261 520 c 1
 293 549 324 566 324 613 c 0xe8
428 211 m 1
 439 168 491 25 491 0 c 1
 399 0 l 1
 399 15 378 87 372 120 c 1
 344 44 326 0 257 0 c 0
 150 0 101 104 101 233 c 0xd4
 101 339 134 406 186 459 c 1
 139 494 101 544 101 620 c 0
 101 725 173 801 264 801 c 0
 355 801 420 724 420 634 c 0
 420 548 360 482 324 447 c 1
 357 390 350 400 386 324 c 1
 407 356 440 444 440 444 c 1
 499 363 l 5
 499 363 442 236 428 211 c 1
330 242 m 1
 330 242 284 337 258 386 c 1
 217 344 189 313 189 232 c 3
 189 176 202 101 240 101 c 0
 279 101 308 181 330 242 c 1
EndSplineSet
Validated: 1
EndChar

StartChar: at
Encoding: 64 64 92
Width: 600
Flags: W
HStem: 1 78<297.089 443.196> 156 73<325.85 397.212> 558 72<324.033 397.807> 725 76<305.066 385.096>
VStem: 101 65<267.159 516.607> 233 68<254.869 535.718> 416 83<270.358 539.915>
LayerCount: 2
Fore
SplineSet
416 604 m 5
 409 643 389 725 361 725 c 4
 262 725 166 529 166 391 c 7
 166 257 245 79 362 79 c 4
 393 79 439 87 488 119 c 6
 496 124 l 5
 496 50 l 5
 490 44 478 33 428 18 c 4
 394 8 375 1 362 1 c 4
 203 1 101 264 101 391 c 7
 101 560 201 801 361 801 c 4
 410 801 427 774 450 734 c 4
 495 655 499 479 499 414 c 6
 499 391 l 6
 499 319 466 156 361 156 c 4
 271 156 233 261 233 391 c 7
 233 527 268 630 361 630 c 4
 398 630 389 625 406 612 c 4
 409 610 412 607 416 604 c 5
361 558 m 4
 307 558 300 473 300 423 c 0
 300 408 301 396 301 391 c 4
 301 389 301 387 301 384 c 0
 301 346 303 229 361 229 c 4
 409 229 416 301 416 349 c 0
 416 370 415 386 415 391 c 4
 415 401 416 416 416 434 c 0
 416 486 410 558 361 558 c 4
EndSplineSet
Validated: 1
EndChar

StartChar: asciitilde
Encoding: 126 126 93
Width: 600
Flags: W
HStem: 223 106<337.912 449.342> 321 107<151.586 264.088>
LayerCount: 2
Fore
SplineSet
499 397 m 1x80
 499 291 l 1
 499 291 441 223 400 223 c 27x80
 321 223 281 321 202 321 c 27
 160 321 101 253 101 253 c 1
 101 359 l 1
 101 359 160 428 202 428 c 27x40
 281 428 321 329 400 329 c 27
 441 329 499 397 499 397 c 1x80
EndSplineSet
Validated: 1
EndChar

StartChar: grave
Encoding: 96 96 94
Width: 600
Flags: W
HStem: 501 299<301 339>
VStem: 205 190
LayerCount: 2
Fore
SplineSet
205 799 m 1
 339 800 l 1
 395 501 l 5
 301 501 l 5
 205 799 l 1
EndSplineSet
Validated: 1
EndChar

